<?xml version="1.0" encoding="UTF-8" standalone="no"?>
<svg id="svg2" xmlns:rdf="http://www.w3.org/1999/02/22-rdf-syntax-ns#" xmlns="http://www.w3.org/2000/svg" height="436.5" width="313.07" version="1.1" xmlns:cc="http://creativecommons.org/ns#" xmlns:dc="http://purl.org/dc/elements/1.1/">
 <metadata id="metadata29">
  <rdf:RDF>
   <cc:Work rdf:about="">
    <dc:format>image/svg+xml</dc:format>
    <dc:type rdf:resource="http://purl.org/dc/dcmitype/StillImage"/>
    <dc:title/>
   </cc:Work>
  </rdf:RDF>
 </metadata>
 <g id="g4" stroke="#000" transform="translate(-151.50033,-178)">
  <g id="svg_1" fill="#efb37a">
   <path id="svg_2" d="m195,487.5s-26.5,3.5-39-21c0,0-11.5-12.5,4.5-13.5s39-7,39-7,5.5,35.5-4.5,41.5z"/>
   <path id="svg_3" d="m202.5,389.5s-6-7-4.5-13.5c0,0-6-7-3-11.5s9.5-0.5,9.5-0.5"/>
   <path id="svg_4" d="m198,376s-2-12.5,6.5-7"/>
   <path id="svg_5" d="m155.5,463.5s-0.5-10,11.5-9"/>
  </g>
  <g id="svg_6" fill="#efb37a">
   <path id="svg_7" d="m305,594s-6.5-3-7.5-15.5c0,0-29.5-13.5-26.5-18,5.5,7-33.733-2.826-36-6,0,0-20,22.5-41,1.5,0,0-3,1-5.5-5s21.5-19.5,23-21,3-3.5,5.5-7.5,128-16,128-16l-40,87.5z"/>
   <path id="svg_8" d="m235,554.5s10-2.5,7.5-21"/>
   <line id="svg_9" y1="543.5" x2="271.5" x1="274" y2="563"/>
   <path id="svg_10" d="m313,549.5s-13.5,11-15.5,29"/>
   <path id="svg_11" d="m192.5,552.5s0-10.5,9-8.5l12.5-9s3-5-2.5-5"/>
   <line id="svg_12" y1="540" x2="304" x1="317" y2="533"/>
  </g>
  <path id="svg_13" fill="#4c4949" d="m213,287.5-17,196s-6.5,34.5,30.5,40,123,15,123,15,30,7.5,33.5-32,21-283.5,21-283.5,5-34.5-34-36.5-121.5-8-121.5-8-27.5,2-29.5,30-6,79-6,79z"/>
  <path id="svg_14" fill="#e5e5e5" d="m222.5,226-23,252s4,34,31,37,94.5,9.5,94.5,9.5,46,12,48.5-30.5,16.5-275,16.5-275-3-23.5-29-25-109.5-6.5-109.5-6.5-29-5.5-29,38.5z"/>
  <g id="svg_15" fill="#efb37a">
   <path id="svg_16" d="m303,611.5s9-82.5,44.5-120.5c0,0,6-31.5,7-41.5s-6.2715-88.852,43.5-106c20.636-7.1098,28.653-4.4742,28.5,8.5l-2.5,12.5-2,12.5s9,17.5,12,28,14,45,20.5,54.5,13,24.5,7.5,39-8,63.5-13.5,84-7,31.5-7,31.5"/>
   <path id="svg_17" d="m422,377s-23.865,108.38,1,132c10,9.5,11.5,18.5,11.5,18.5"/>
   <path id="svg_18" d="m412,434s-9.5-8.5-18-7"/>
   <path id="svg_19" d="m398,343.5s-14.5,26-11.5,36.5,29,7.5,29,7.5l6-15"/>
  </g>
 </g>
</svg>
