<?xml version="1.0" encoding="UTF-8" standalone="no"?>
<!DOCTYPE svg  PUBLIC '-//W3C//DTD SVG 1.1//EN'  'http://www.w3.org/Graphics/SVG/1.1/DTD/svg11.dtd'>
<svg id="Layer_1" xmlns="http://www.w3.org/2000/svg" xml:space="preserve" viewBox="0 0 26 26" version="1.1" y="0px" x="0px" xmlns:xlink="http://www.w3.org/1999/xlink" enable-background="new 0 0 26 26">
	<path d="m13.6 15.7c1.3 0 2.4 0.3 2.4 1.6s-1.1 1.6-2.4 1.6-2.4-0.2-2.4-1.6 1.1-1.6 2.4-1.6z"/>
	<path d="m19.4 12.5l-0.1-0.1-0.1-0.1-0.1-0.1c-3.1-2.8-7.9-2.7-10.9 0.3l-0.4 0.4-0.5 0.5c-0.6 0.6-0.6 1.6 0 2.2s1.6 0.6 2.2 0l0.8-0.8c1.9-1.9 5-1.9 6.9 0l0.6 0.6c0.6 0.6 1.5 0.6 2.1 0 0.3-0.3 0.4-0.7 0.4-1.1s-0.2-0.8-0.4-1.1l-0.5-0.7z"/>
	<path d="m23.6 9.5l-0.5-0.5-0.4-0.4-0.2-0.2c-5.2-4.4-13-4.3-17.9 0.5 0 0-0.1 0-0.1 0.1l-0.9 0.8c-0.5 0.5-0.5 1.4 0 2 0.5 0.5 1.4 0.5 2 0l0.9-0.9c4-3.9 10.4-3.9 14.4-0.1l0.7 0.7c0.5 0.5 1.4 0.5 2 0 0.5-0.5 0.5-1.4 0-2z"/>
</svg>
